<?xml version="1.0" encoding="utf-8"?>
<!-- Generator: Adobe Illustrator 19.1.0, SVG Export Plug-In . SVG Version: 6.00 Build 0)  -->
<svg version="1.1" id="Layer_1" xmlns="http://www.w3.org/2000/svg" xmlns:xlink="http://www.w3.org/1999/xlink" x="0px" y="0px"
	 viewBox="0 0 300 300" style="enable-background:new 0 0 300 300;" xml:space="preserve">
<style type="text/css">
	.st0{fill:#0EFBDB;}
	.st1{fill:#FFFFFF;}
</style>
<g>
	<g>
		<path class="st0" d="M5,246.3l4.2-11.5L73,68.1L78.5,54l29.2-0.3l32.8,85.7l0.1,83.2l-29.9-78.2l-32.2,14.3l12.8-30.5l11.2-5.4
			l-9.2-24.1L49,213.9l-13.3,9.4L5,246.3L5,246.3z M82.9,60.3l-3.9,10.1L18.6,228.1l10-7.5l-0.1-0.1l3.6-2.5l0,0l6.1-4.6l0.1,0.2
			l5.4-3.8l49.4-129l17.3,45.2l-14.3,6.9l-5.6,13.4l23.7-10.5l19.9,52.1l-0.1-47.3l-30.8-80.5L82.9,60.3L82.9,60.3z"/>
	</g>
	<g>
		<path class="st1" d="M295,246.4l-30.9-23.2l-13.2-9.3L206.8,98.6l-16.3,42.6l-32.1,81.2l0.8-83.1l33-85.4l29,0l5.6,14.1
			l64.3,168.1L295,246.4L295,246.4z M271.3,220.6l10,7.5L220.9,70.3l-4-10l-20.3,0l-31,80.3l-0.5,47.5l19.4-49.2l22.2-58.1l49.4,129
			l5.4,3.8l0.1-0.2l6.1,4.6l0,0L271.3,220.6L271.3,220.6L271.3,220.6z"/>
	</g>
</g>
</svg>
